General

Format : MPEG-4
Format profile : Base Media
Codec ID : isom
File size : 56.8 MiB
Duration : 3mn 30s
Overall bit rate : 2 267 Kbps
Encoded date : UTC 2012-02-03 16:37:20
Tagged date : UTC 2012-02-03 16:37:20

Video
ID : 1
Format : AVC
Format/Info : Advanced Video Codec
Format profile : High@L3.0
Format settings, CABAC : Yes
Format settings, ReFrames : 2 frames
Codec ID : avc1
Codec ID/Info : Advanced Video Coding
Duration : 3mn 30s
Bit rate mode : Variable
Bit rate : 2 276 Kbps
Maximum bit rate : 3 676 Kbps
Width : 720 pixels
Height : 480 pixels
Display aspect ratio : 16:9
Original display aspect ratio : 16:9
Frame rate mode : Constant
Frame rate : 29.970 fps
Standard : NTSC
Color space : YUV
Chroma subsampling : 4:2:0
Bit depth : 8 bits
Scan type : Progressive
Bits/(Pixel*Frame) : 0.220
Stream size : 54.8 MiB (96%)


Audio
ID : 2
Format : AAC
Format/Info : Advanced Audio Codec
Format profile : LC
Codec ID : 40
Duration : 3mn 29s
Bit rate mode : Variable
Bit rate : 72.0 Kbps
Maximum bit rate : 83.1 Kbps
Channel(s) : 2 channels
Channel positions : Front: L R
Sampling rate : 44.1 KHz
Compression mode : Lossy
Stream size : 1.80 MiB (3%) 